HIERARCHY
ROOT Hips
{
  OFFSET 5.84602e-005 68.8428 3.50346
  CHANNELS 6 Xposition Yposition Zposition Zrotation Xrotation Yrotation
  JOINT Spine
  {
    OFFSET 0 8.597 -4.6522
    CHANNELS 3 Zrotation Xrotation Yrotation
    JOINT Spine1
    {
      OFFSET 0 7.8454 0.4098
      CHANNELS 3 Zrotation Xrotation Yrotation
      JOINT Spine2
      {
        OFFSET 0 9.7078 -2.1609
        CHANNELS 3 Zrotation Xrotation Yrotation
        JOINT Neck
        {
          OFFSET 0 21.8761 -0.4549
          CHANNELS 3 Zrotation Xrotation Yrotation
          JOINT Head
          {
            OFFSET 0 12.3537 3.3602
            CHANNELS 3 Zrotation Xrotation Yrotation
            End Site
            {
              OFFSET 0.0001 18.9506 0.5657
            }
          }
        }
        JOINT LeftShoulder
        {
          OFFSET 2.2086 21.1115 7.2329
          CHANNELS 3 Zrotation Xrotation Yrotation
          JOINT LeftArm
          {
            OFFSET 13.1193 3.0282 -4.8998
            CHANNELS 3 Zrotation Xrotation Yrotation
            JOINT LeftForeArm
            {
              OFFSET 27.4081 -0.0973053 -0.2375
              CHANNELS 3 Zrotation Xrotation Yrotation
              JOINT LeftHand
              {
                OFFSET 22.8641 0.0662994 -0.1369
                CHANNELS 3 Zrotation Xrotation Yrotation
                JOINT LeftHandIndex1
                {
                  OFFSET 8.8614 0.775009 2.4612
                  CHANNELS 3 Zrotation Xrotation Yrotation
                  JOINT LeftHandIndex2
                  {
                    OFFSET 3.3146 -0.808304 0.5841
                    CHANNELS 3 Zrotation Xrotation Yrotation
                    JOINT LeftHandIndex3
                    {
                      OFFSET 2.2628 -0.552002 0.3989
                      CHANNELS 3 Zrotation Xrotation Yrotation
                      End Site
                      {
                        OFFSET 1.6102 -0.4807 0.2612
                      }
                    }
                  }
                }
                JOINT LeftHandMiddle1
                {
                  OFFSET 8.9937 0.895004 0.2143
                  CHANNELS 3 Zrotation Xrotation Yrotation
                  JOINT LeftHandMiddle2
                  {
                    OFFSET 4.0984 0.0113983 -0.0242
                    CHANNELS 3 Zrotation Xrotation Yrotation
                    JOINT LeftHandMiddle3
                    {
                      OFFSET 2.2716 0.00689697 -0.0138001
                      CHANNELS 3 Zrotation Xrotation Yrotation
                      End Site
                      {
                        OFFSET 2.0404 -0.1441 0.0027
                      }
                    }
                  }
                }
                JOINT LeftHandRing1
                {
                  OFFSET 8.5234 0.597198 -2.0164
                  CHANNELS 3 Zrotation Xrotation Yrotation
                  JOINT LeftHandRing2
                  {
                    OFFSET 3.7188 -0.188293 -0.2328
                    CHANNELS 3 Zrotation Xrotation Yrotation
                    JOINT LeftHandRing3
                    {
                      OFFSET 2.1191 -0.106598 -0.1332
                      CHANNELS 3 Zrotation Xrotation Yrotation
                      End Site
                      {
                        OFFSET 1.8737 -0.2304 -0.0886
                      }
                    }
                  }
                }
                JOINT LeftHandPinky1
                {
                  OFFSET 7.9094 -0.601089 -3.4825
                  CHANNELS 3 Zrotation Xrotation Yrotation
                  JOINT LeftHandPinky2
                  {
                    OFFSET 2.2874 -0.477005 -0.6314
                    CHANNELS 3 Zrotation Xrotation Yrotation
                    JOINT LeftHandPinky3
                    {
                      OFFSET 1.6774 -0.349396 -0.4633
                      CHANNELS 3 Zrotation Xrotation Yrotation
                      End Site
                      {
                        OFFSET 1.4888 -0.4091 -0.3416
                      }
                    }
                  }
                }
                JOINT LeftHandThumb1
                {
                  OFFSET 1.833 -1.3875 1.3896
                  CHANNELS 3 Zrotation Xrotation Yrotation
                  JOINT LeftHandThumb2
                  {
                    OFFSET 3.4129 -1.121 2.5732
                    CHANNELS 3 Zrotation Xrotation Yrotation
                    JOINT LeftHandThumb3
                    {
                      OFFSET 2.2474 -0.804199 1.6192
                      CHANNELS 3 Zrotation Xrotation Yrotation
                      End Site
                      {
                        OFFSET 1.6527 -0.5689 1.1317
                      }
                    }
                  }
                }
              }
            }
          }
        }
        JOINT RightShoulder
        {
          OFFSET -2.2086 21.1115 7.2329
          CHANNELS 3 Zrotation Xrotation Yrotation
          JOINT RightArm
          {
            OFFSET -13.1216 3.0287 -4.9007
            CHANNELS 3 Zrotation Xrotation Yrotation
            JOINT RightForeArm
            {
              OFFSET -27.4081 -0.0973053 -0.2375
              CHANNELS 3 Zrotation Xrotation Yrotation
              JOINT RightHand
              {
                OFFSET -22.8641 0.0664063 -0.1369
                CHANNELS 3 Zrotation Xrotation Yrotation
                JOINT RightHandIndex1
                {
                  OFFSET -8.8614 0.774994 2.4612
                  CHANNELS 3 Zrotation Xrotation Yrotation
                  JOINT RightHandIndex2
                  {
                    OFFSET -3.3146 -0.808304 0.5841
                    CHANNELS 3 Zrotation Xrotation Yrotation
                    JOINT RightHandIndex3
                    {
                      OFFSET -2.2628 -0.552002 0.3989
                      CHANNELS 3 Zrotation Xrotation Yrotation
                      End Site
                      {
                        OFFSET -1.6102 -0.4807 0.2612
                      }
                    }
                  }
                }
                JOINT RightHandMiddle1
                {
                  OFFSET -8.9937 0.894989 0.2143
                  CHANNELS 3 Zrotation Xrotation Yrotation
                  JOINT RightHandMiddle2
                  {
                    OFFSET -4.0984 0.0113983 -0.0242
                    CHANNELS 3 Zrotation Xrotation Yrotation
                    JOINT RightHandMiddle3
                    {
                      OFFSET -2.2716 0.00691223 -0.0138001
                      CHANNELS 3 Zrotation Xrotation Yrotation
                      End Site
                      {
                        OFFSET -2.0404 -0.1441 0.0027
                      }
                    }
                  }
                }
                JOINT RightHandRing1
                {
                  OFFSET -8.5234 0.597198 -2.0164
                  CHANNELS 3 Zrotation Xrotation Yrotation
                  JOINT RightHandRing2
                  {
                    OFFSET -3.7188 -0.188309 -0.2328
                    CHANNELS 3 Zrotation Xrotation Yrotation
                    JOINT RightHandRing3
                    {
                      OFFSET -2.1191 -0.106598 -0.1332
                      CHANNELS 3 Zrotation Xrotation Yrotation
                      End Site
                      {
                        OFFSET -1.8737 -0.2304 -0.0886
                      }
                    }
                  }
                }
                JOINT RightHandPinky1
                {
                  OFFSET -7.9094 -0.601105 -3.4825
                  CHANNELS 3 Zrotation Xrotation Yrotation
                  JOINT RightHandPinky2
                  {
                    OFFSET -2.2874 -0.477005 -0.6314
                    CHANNELS 3 Zrotation Xrotation Yrotation
                    JOINT RightHandPinky3
                    {
                      OFFSET -1.6774 -0.349396 -0.4633
                      CHANNELS 3 Zrotation Xrotation Yrotation
                      End Site
                      {
                        OFFSET -1.4888 -0.4091 -0.3416
                      }
                    }
                  }
                }
                JOINT RightHandThumb1
                {
                  OFFSET -1.833 -1.38751 1.3896
                  CHANNELS 3 Zrotation Xrotation Yrotation
                  JOINT RightHandThumb2
                  {
                    OFFSET -3.41299 -1.12099 2.5732
                    CHANNELS 3 Zrotation Xrotation Yrotation
                    JOINT RightHandThumb3
                    {
                      OFFSET -2.24741 -0.804108 1.6192
                      CHANNELS 3 Zrotation Xrotation Yrotation
                      End Site
                      {
                        OFFSET -1.6527 -0.5689 1.1317
                      }
                    }
                  }
                }
              }
            }
          }
        }
      }
    }
  }
  JOINT RightUpLeg
  {
    OFFSET -9.1966 3.8861 -0.7581
    CHANNELS 3 Zrotation Xrotation Yrotation
    JOINT RightLeg
    {
      OFFSET -0.7359 -41.0265 0
      CHANNELS 3 Zrotation Xrotation Yrotation
      JOINT RightFoot
      {
        OFFSET 0 -40.2855 0
        CHANNELS 3 Zrotation Xrotation Yrotation
        JOINT RightToeBase
        {
          OFFSET 0 -5.6122 11.7359
          CHANNELS 3 Zrotation Xrotation Yrotation
          End Site
          {
            OFFSET 0 0 7.8731
          }
        }
      }
    }
  }
  JOINT LeftUpLeg
  {
    OFFSET 9.1965 3.8864 -0.7581
    CHANNELS 3 Zrotation Xrotation Yrotation
    JOINT LeftLeg
    {
      OFFSET 0.7359 -41.0268 0
      CHANNELS 3 Zrotation Xrotation Yrotation
      JOINT LeftFoot
      {
        OFFSET 0 -40.2855 0
        CHANNELS 3 Zrotation Xrotation Yrotation
        JOINT LeftToeBase
        {
          OFFSET 0 -5.6122 11.7359
          CHANNELS 3 Zrotation Xrotation Yrotation
          End Site
          {
            OFFSET 0 0 7.8731
          }
        }
      }
    }
  }
}
MOTION
Frames:	4
Frame Time:	0.0333333
5.84602e-005 68.8428 3.50346 0 0 -0 0 0 -0 0 0 -0 0 0 -0 0 0 -0 0 0 -0 0 0 -0 0 0 -0 0 0 -0 0 0 -0 0 0 -0 0 0 -0 0 0 -0 0 0 -0 -0.0146107 -8.87603e-005 -2.63497e-007 2.99804e-018 -2.42657e-020 -1.42182e-022 0 0 -0 -0.0187562 -0.001176 5.858e-005 5.06224e-018 3.88251e-019 1.21329e-020 0 0 -0 -0.012269 -0.00324817 0.000675346 -1.74678e-018 3.88251e-019 -0 0 0 -0 0 0 -0 0 0 -0 0 0 -0 0 0 -0 0 0 -0 0 0 -0 0 0 -0 0 0 -0 0 0 -0 0 0 -0 0.0149955 -9.10982e-005 2.64101e-007 -9.69331e-018 1.21329e-020 -4.7394e-023 0 0 -0 0.0189956 -0.00119102 -5.96516e-005 -5.41541e-019 0 2.42657e-020 0 0 -0 0.0122698 -0.00324857 -0.000673756 -2.00796e-019 0 -1.94126e-019 0 0 -0 0 0 -0 0 0 -0 3.39842 1.33031 -0.0637918 -5.65207e-008 0.834868 -0.000436188 -3.39935 -2.16518 -0.0642563 -8.89002e-024 -1.18485e-023 -1.48106e-024 -3.39844 1.35642 0.0640283 -3.18788e-007 0.782166 -0.000588827 3.39931 -2.13858 0.0634662 1.1399e-023 0 -0 
1.01641 60.6582 -9.17478 -10.364 -9.63283 132.457 -0.804089 1.7147 -0.157593 -1.60453 3.43146 -0.291309 -1.60454 3.43146 -0.291293 1.89738e-005 11.9148 -2.032e-005 -7.85372e-008 8.19972 -5.64657e-007 -22.2882 21.417 -13.9073 -26.5223 -2.44154 21.2763 -10.0837 -20.9945 -42.8473 -12.0355 0.0847348 -3.84759 0 0 -1.59028e-015 -7.95139e-015 0 -0 -7.95139e-015 0 1.59028e-015 0 0 -1.59028e-015 -0.0146428 -8.88971e-005 -1.05172e-007 -1.59028e-015 -3.18055e-015 3.18055e-015 0 0 -1.59028e-015 -0.0187606 -0.00117889 6.06461e-005 -3.18055e-015 6.36111e-015 -0 0 0 -1.59028e-015 -0.0122288 -0.00323574 0.000669132 -6.36111e-015 0 -1.11319e-014 0 0 -1.59028e-015 -7.95139e-015 0 -0 -7.95139e-015 0 1.59028e-015 24.8351 21.9282 13.3882 26.4997 -2.61597 -20.6938 11.1772 -19.4075 42.0592 12.0329 0.0842501 3.84501 -8.63881e-007 2.68733e-006 -1.86008e-006 -4.45805e-006 -1.21134e-006 4.58672e-006 5.27308e-008 3.20375e-006 1.75729e-006 -8.63881e-007 2.68733e-006 -1.86008e-006 0.0150437 -8.82464e-005 4.78122e-006 5.28774e-008 3.20398e-006 1.75687e-006 -8.63881e-007 2.68733e-006 -1.86008e-006 0.018966 -0.00118946 -6.3934e-005 5.29302e-008 3.20403e-006 1.75676e-006 -8.63881e-007 2.68733e-006 -1.86008e-006 0.0122781 -0.00324785 -0.000674617 5.28801e-008 3.20391e-006 1.75694e-006 -8.63881e-007 2.68733e-006 -1.86008e-006 -4.45805e-006 -1.21134e-006 4.58672e-006 5.27308e-008 3.20375e-006 1.75729e-006 -16.0027 -42.0737 -20.7222 9.46763 28.4391 -10.1811 8.90584 -1.5725 -0.124629 1.17534e-006 -2.43247e-007 -7.63642e-009 15.9843 -42.0699 20.6925 -9.46694 28.4263 10.1815 -8.92384 -1.55848 0.126121 1.83975e-008 -7.74084e-008 -8.71918e-009 
-0.102203 57.0758 -12.3652 4.86615 -19.6917 -165.82 -1.15661 2.46682 -0.303781 -2.30333 4.93926 -0.55836 -2.30333 4.93926 -0.558363 4.98322e-006 16.9547 1.01097e-005 -4.63607e-008 11.6327 1.75902e-007 -28.2405 29.9529 -21.9475 -38.086 -3.35175 31.0007 -23.2689 -20.3194 -63.7888 -17.4478 0.12256 -5.57901 -3.72721e-015 0 3.97569e-016 -3.67752e-015 -1.59028e-015 -7.95139e-016 -3.47873e-016 -3.18055e-015 7.95139e-016 -3.72721e-015 0 3.97569e-016 -0.0146133 -8.83438e-005 -1.67937e-006 -2.13694e-015 -1.59028e-015 7.95139e-016 -3.72721e-015 0 3.97569e-016 -0.0187346 -0.00117491 5.89366e-005 4.17448e-015 1.59028e-015 -1.19271e-015 -3.72721e-015 0 3.97569e-016 -0.0122725 -0.00324848 0.000676487 1.14301e-015 -1.59028e-015 -7.95139e-016 -3.72721e-015 0 3.97569e-016 -3.67752e-015 -1.59028e-015 -7.95139e-016 -3.47873e-016 -3.18055e-015 7.95139e-016 31.9339 30.7379 21.2448 38.0171 -3.59287 -30.1701 24.1382 -19.0137 62.4879 17.444 0.12186 5.57528 3.53113e-031 6.36111e-015 -3.18055e-015 -3.97569e-016 6.36111e-015 -3.18055e-015 7.95139e-016 6.36111e-015 -3.18055e-015 3.53113e-031 6.36111e-015 -3.18055e-015 0.0150142 -9.03171e-005 1.49141e-006 -1.19271e-015 6.36111e-015 -4.77083e-015 3.53113e-031 6.36111e-015 -3.18055e-015 0.0189869 -0.00119069 -5.74254e-005 1.19271e-015 3.18055e-015 1.59028e-015 3.53113e-031 6.36111e-015 -3.18055e-015 0.0122944 -0.00325444 -0.000677012 -2.78299e-015 3.18055e-015 -3.18055e-015 3.53113e-031 6.36111e-015 -3.18055e-015 -3.97569e-016 6.36111e-015 -3.18055e-015 7.95139e-016 6.36111e-015 -3.18055e-015 -41.7172 -56.4105 -42.4028 17.376 40.0734 -16.9238 14.4988 -1.29381 -0.13109 -1.68026e-006 -1.5008e-007 1.11037e-007 41.6723 -56.4189 42.3474 -17.373 40.0557 16.9222 -14.525 -1.27369 0.133072 -6.60633e-007 4.44973e-007 1.19139e-006 
-0.000384479 57.8737 -11.8758 0.00123701 -18.4425 -179.992 -1.07905 2.25057 -0.269956 -2.14996 4.50574 -0.49799 -2.14996 4.50574 -0.49799 -3.32889e-005 15.1188 -2.93067e-007 -4.65317e-007 10.2989 -4.85738e-009 -26.6032 27.9873 -20.3646 -35.9962 -3.3797 29.1127 -20.3898 -20.9409 -59.5317 -16.2452 0.114181 -5.19425 -3.72328e-006 1.99688e-007 -3.87642e-007 -3.88485e-008 -4.83917e-007 4.1706e-007 -5.25193e-008 2.33469e-007 9.23263e-007 -3.72328e-006 1.99688e-007 -3.87642e-007 -0.0146093 -8.94009e-005 -3.91327e-007 -3.78685e-006 2.71777e-007 6.74678e-007 -3.72328e-006 1.99688e-007 -3.87642e-007 -0.0187222 -0.00117362 5.70863e-005 -5.25035e-008 2.33319e-007 9.23301e-007 -3.72328e-006 1.99688e-007 -3.87642e-007 -0.0122685 -0.00324891 0.000677507 -3.78714e-006 2.72223e-007 6.74689e-007 -3.72328e-006 1.99688e-007 -3.87642e-007 -3.88485e-008 -4.83917e-007 4.1706e-007 -5.25193e-008 2.33469e-007 9.23263e-007 30.0035 28.6894 19.7328 35.9145 -3.58664 -28.3606 21.3165 -19.4827 58.38 16.2417 0.113528 5.19078 -2.95576e-008 3.06028e-007 2.96102e-007 -3.69469e-008 3.82535e-007 3.70128e-007 -3.69469e-008 3.82535e-007 3.70128e-007 -2.95576e-008 3.06028e-007 2.96102e-007 0.0150052 -9.12097e-005 1.49834e-007 -3.69475e-008 3.82583e-007 3.70078e-007 -2.95576e-008 3.06028e-007 2.96102e-007 0.019009 -0.00119138 -5.98501e-005 -3.69444e-008 3.82596e-007 3.70065e-007 -2.95576e-008 3.06028e-007 2.96102e-007 0.0122067 -0.00323229 -0.000671383 -3.69394e-008 3.82574e-007 3.70088e-007 -2.95576e-008 3.06028e-007 2.96102e-007 -3.69469e-008 3.82535e-007 3.70128e-007 -3.69469e-008 3.82535e-007 3.70128e-007 -34.1469 -53.3963 -35.9354 15.3245 37.5329 -15.2078 13.2555 -1.34198 -0.132366 -9.82527e-007 2.85334e-007 -2.97035e-007 34.1093 -53.401 35.8869 -15.3224 37.5163 15.207 -13.2798 -1.3233 0.134262 3.97569e-015 1.59028e-015 -6.36111e-015 
